<svg width="101" height="101" viewBox="0 0 101 101" fill="none" xmlns="http://www.w3.org/2000/svg">
<path d="M20.0479 10.1153C22.3183 13.5362 24.2512 17.0662 25.2479 20.8952C27.6361 30.0791 24.8689 38.2596 17.9781 45.6264C16.304 47.44 14.4081 49.1096 12.3195 50.6095C10.9567 51.5765 10.5968 52.6891 10.8229 54.0772C11.0586 55.519 11.257 56.9669 11.4184 58.4209C11.8897 62.58 10.3739 66.4168 8.46015 70.1808C8.14413 70.8775 7.78164 71.5596 7.3743 72.224C5.14528 75.5304 5.87131 78.7018 7.96977 81.8237C8.19904 82.1616 8.44741 82.4944 8.64803 82.8453C9.24031 83.8695 8.87411 84.9249 7.7596 85.4603C7.49335 85.5895 7.19824 85.674 6.8915 85.709C6.58477 85.744 6.27257 85.7288 5.97314 85.6642C5.67371 85.5996 5.39306 85.4869 5.14759 85.3327C4.90211 85.1785 4.69673 84.986 4.54344 84.7663C2.8361 82.5766 1.7091 80.1194 1.23494 77.5528C0.891035 75.5408 1.53108 73.6329 2.44498 71.782C3.35888 69.9312 4.37468 68.031 5.26628 66.1309C6.80113 62.8529 6.98582 59.5152 6.32666 56.0944C6.08466 54.8492 5.88086 53.5885 6.05918 52.3226C6.09123 52.0648 6.04303 51.8046 5.91907 51.5661C3.72189 46.9781 2.75067 42.1561 1.94504 37.316C1.00143 31.7609 0.589407 26.1542 0.712713 20.5469C0.830533 15.9381 1.23813 11.3579 3.08821 6.95179C3.72428 5.34659 4.76323 3.86723 6.13879 2.60811C7.1514 1.70611 8.51429 1.28499 9.76254 0.69492H12.6284C17.0578 1.58393 20.2071 3.98842 23.1367 6.63726C23.9614 7.3807 24.7288 8.15794 25.5058 8.94297C30.1167 13.6974 33.9665 18.8573 37.6062 24.1264C38.0297 24.7398 38.4755 24.9296 39.2843 24.7944C40.8128 24.5345 42.3699 24.5943 43.9111 24.6644C48.3084 24.8646 52.716 24.8646 57.1133 24.6644C58.6131 24.5943 60.132 24.5267 61.6191 24.784C62.5266 24.94 62.9979 24.7294 63.4756 24.038C67.1089 18.7663 70.9492 13.596 75.5919 8.86499C79.015 5.37393 82.6292 2.04144 88.1604 0.692322H90.7811C95.4143 1.7607 97.1497 4.79945 98.4011 8.16314C99.6526 11.5268 100.095 14.9555 100.226 18.4206C100.605 28.4388 99.7067 38.3791 96.43 48.0673C95.4525 50.9579 95.1181 53.864 94.5609 56.7806C93.7329 61.0983 95.0226 65.0573 97.1083 68.9408C98.0636 70.7189 99.0762 72.4761 99.5953 74.3815C100.42 77.3969 99.3023 80.1497 97.7579 82.8141C94.892 87.7739 90.1156 91.2571 84.3838 93.9164C77.3783 97.1527 69.7614 98.8215 61.8516 99.6767C52.0639 100.765 42.118 100.443 32.4667 98.7253C29.1787 98.1372 25.9525 97.3384 22.8182 96.3364C21.2038 95.8166 20.5414 94.7768 21.0764 93.6824C21.6114 92.588 22.9106 92.2189 24.5601 92.7024C41.1185 97.5478 57.7948 97.6778 74.4933 93.2639C80.6072 91.6496 86.0938 89.0918 90.3416 85.0262C91.9697 83.4336 93.2699 81.6356 94.1915 79.7026C94.7517 78.63 95.0245 77.4721 94.9915 76.3064C94.9586 75.1407 94.6206 73.9943 94.0004 72.944C92.9591 71.062 92.0166 69.1436 91.1345 67.1992C89.5186 63.5576 89.0992 59.6339 89.9181 55.8188C89.9181 55.7876 89.9181 55.7564 89.9404 55.7253C90.5773 53.3468 90.0328 51.4908 87.6063 49.6971C81.9478 45.5172 77.9674 40.3573 76.0122 34.2746C73.7832 27.3107 74.9614 20.6041 78.5246 14.1133C79.2666 12.759 80.1327 11.4514 80.9415 10.1205C81.0052 10.0243 81.1549 9.91776 80.9766 9.82419C80.7982 9.73061 80.7537 9.89437 80.6868 9.98535C77.9897 12.3716 75.8052 15.0699 73.6303 17.7681C71.4969 20.4169 69.5321 23.149 67.5993 25.8966C67.2522 26.3931 67.2808 26.6322 67.8572 26.9701C68.8629 27.6053 69.7565 28.3505 70.5129 29.1849C71.4173 30.1311 71.3153 31.2436 70.2868 31.9611C69.2583 32.6785 67.9081 32.5642 66.8923 31.7011C66.6185 31.4672 66.3669 31.215 66.1122 30.9655C65.3262 30.167 64.3212 29.5306 63.1785 29.1075C62.0357 28.6844 60.7871 28.4865 59.5334 28.5298C56.0848 28.5818 52.633 28.6858 49.1844 28.6936C46.6847 28.6936 44.1882 28.5922 41.6885 28.5272C38.7939 28.4492 36.463 29.3434 34.6193 31.1683C33.2246 32.546 31.884 32.7851 30.6899 31.9481C29.4957 31.1111 29.5753 29.9959 31.0083 28.6494C31.6966 27.9777 32.4705 27.3677 33.3169 26.8298C33.6194 26.6426 33.8169 26.4867 33.5685 26.1357C29.6008 20.5443 25.5567 14.9763 20.4013 10.0373C20.379 10.0139 20.3313 10.0087 20.2963 9.99315C20.2262 9.90477 20.1975 9.7332 20.0065 9.83198C19.8154 9.93076 19.9715 10.0191 20.0479 10.1153ZM91.7109 47.628C91.9879 46.7623 92.2363 46.0501 92.4401 45.3275C94.2775 38.8288 95.1659 32.247 95.4748 25.608C95.704 20.6691 95.5989 15.7561 94.3284 10.9056C93.838 9.03655 93.2171 7.19874 91.7809 5.63387C91.3956 5.21796 91.1441 4.99441 90.5773 5.57149C87.3325 8.95077 84.4984 12.5172 82.4764 16.4892C80.2282 20.9082 79.1838 25.4729 79.9512 30.2429C81.0625 37.2198 85.5652 42.6942 91.7109 47.628ZM9.30081 47.5994C12.0249 45.4993 14.4177 43.1302 16.4241 40.5471C20.2867 35.4859 21.9871 30.0115 21.035 24.0562C19.8982 16.9467 15.6567 11.0251 10.3612 5.5065C9.89628 5.0178 9.65109 5.19717 9.30718 5.54809C8.55606 6.34252 7.97864 7.23688 7.60039 8.19173C6.00823 11.9089 5.64203 15.7821 5.49556 19.6683C5.30283 26.3433 5.86674 33.0185 7.18006 39.6087C7.65607 42.3096 8.36474 44.9798 9.30081 47.5994Z" fill="#c9d1d9"/>
<path d="M26.0796 74.1007C26.4394 67.2875 29.9008 62.8971 35.779 59.6452C37.091 58.9173 38.4984 58.3116 39.7244 57.4824C41.9757 55.9591 43.3004 54.1031 43.3704 51.6363C43.4532 48.7223 46.6153 46.2918 50.204 46.2112C53.9965 46.1254 57.4706 48.3662 57.5725 51.3529C57.6935 54.7894 59.9034 56.9469 63.2215 58.6002C66.0523 60.0117 68.6889 61.5974 70.7269 63.7679C73.5362 66.6673 74.987 70.2895 74.8187 73.9837C74.7742 75.2367 74.392 76.4012 73.2648 77.246C69.6729 79.9417 66.0364 82.6503 61.4192 84.106C59.7155 84.6415 59.0023 85.1146 58.8717 86.7054C58.531 90.4928 54.7321 93.0351 50.1467 92.9207C48.001 92.8662 45.9632 92.1399 44.4557 90.8923C42.9481 89.6447 42.0864 87.9715 42.049 86.2193C42.0012 85.0574 41.6987 84.4959 40.2307 84.3139C39.0207 84.1632 37.9125 83.6511 36.8872 83.0948C34.0173 81.5302 31.2604 79.8316 28.6303 78.0077C26.7993 76.7521 25.9268 75.1561 26.0796 74.1007ZM52.882 77.8829C52.882 79.7311 53.0731 79.9806 55.025 80.5603C57.2827 81.2284 59.4289 80.8879 61.3937 79.8819C64.1895 78.4548 66.7529 76.7625 69.2908 75.0521C69.549 74.8771 69.7537 74.6553 69.8885 74.4044C70.0234 74.1535 70.0848 73.8804 70.0677 73.6068C70.1091 71.5538 69.4746 69.5295 68.2304 67.745C66.5204 65.2314 63.9029 63.4975 60.9447 62.0263C56.2669 59.6868 53.003 56.5986 52.8661 51.8364C52.8374 50.7966 51.6974 50.074 50.4396 50.0974C49.8352 50.0938 49.2533 50.2842 48.8191 50.6274C48.385 50.9707 48.1333 51.4394 48.1183 51.9326C47.9909 56.0579 45.4084 59.0005 41.4312 61.2906C40.1065 62.0549 38.6704 62.6995 37.3839 63.5053C33.3621 66.0216 30.9548 69.2553 30.9102 73.508C30.8834 73.8134 30.9476 74.1195 31.0973 74.4002C31.2471 74.6808 31.4779 74.9277 31.77 75.1197C34.1932 76.7443 36.6706 78.3144 39.2722 79.7389C40.7786 80.6094 42.62 81.0055 44.4563 80.8541C45.7362 80.7825 46.945 80.3475 47.8731 79.6245C48.4622 79.1332 48.01 78.3248 48.1023 77.6645C48.1023 77.6021 48.1023 77.5346 48.1023 77.4722C48.2265 76.8431 47.9559 76.552 47.147 76.3102C45.8173 75.9289 44.6092 75.3089 43.6117 74.496C42.6142 73.6831 41.8528 72.6979 41.3834 71.613C40.132 68.8446 41.3834 66.2556 44.676 65.0754C46.4944 64.4117 48.4624 64.0647 50.4543 64.0566C52.4462 64.0486 54.4183 64.3796 56.2446 65.0286C59.7028 66.2036 60.9606 68.9408 59.5722 71.7872C59.1287 72.7637 58.4377 73.6528 57.5444 74.3964C56.6511 75.14 55.5756 75.7213 54.3882 76.1023C53.1176 76.5104 52.5285 76.9679 52.882 77.8829ZM50.5256 72.9101C51.5007 72.8947 52.45 72.6511 53.2605 72.2083C54.0711 71.7655 54.7089 71.1421 55.0983 70.4121C55.5632 69.4815 55.3371 68.907 54.1876 68.5535C51.832 67.8143 49.2262 67.806 46.8636 68.5301C45.66 68.8888 45.4084 69.4971 45.9083 70.4563C46.3093 71.1831 46.9577 71.8005 47.7762 72.2351C48.5948 72.6697 49.5491 72.9031 50.5256 72.9075V72.9101ZM54.2608 85.5279C54.1366 85.1821 54.5601 84.6129 53.9647 84.4205C52.8252 84.0671 51.7336 83.6185 50.7071 83.0818C50.5383 82.9908 46.7713 84.5583 46.7617 84.7194C46.6885 85.988 46.6503 87.2565 47.9399 88.2209C49.099 89.0839 50.4428 89.3153 51.8853 88.8292C53.6367 88.2287 54.2926 87.0511 54.2608 85.5253V85.5279Z" fill="#c9d1d9"/>
<path d="M33.7204 54.5659C33.404 54.5576 33.0929 54.4978 32.8052 54.3901C32.5175 54.2824 32.259 54.1289 32.0449 53.9387C31.8308 53.7484 31.6653 53.5251 31.5582 53.282C31.4512 53.0388 31.4046 52.7807 31.4213 52.5227C31.4486 52.0186 31.7178 51.5436 32.1706 51.2002C32.6234 50.8568 33.2236 50.6726 33.8414 50.6875C34.4714 50.7006 35.0692 50.9174 35.5034 51.2904C35.9375 51.6633 36.1724 52.1618 36.1563 52.6761C36.1403 53.1904 35.8746 53.6784 35.4178 54.0328C34.961 54.3872 34.3504 54.579 33.7204 54.5659Z" fill="#c9d1d9"/>
<path d="M67.1747 54.5659C66.5571 54.5485 65.9706 54.3406 65.5333 53.9841C65.096 53.6276 64.8406 53.1491 64.8184 52.6449C64.8192 52.3868 64.8824 52.1313 65.0044 51.8931C65.1264 51.6549 65.3048 51.4387 65.5293 51.2569C65.7538 51.075 66.02 50.9312 66.3128 50.8335C66.6055 50.7358 66.919 50.6862 67.2353 50.6876C67.8653 50.6941 68.4663 50.9047 68.9061 51.273C69.3459 51.6413 69.5885 52.1371 69.5805 52.6514C69.5725 53.1657 69.3145 53.6564 68.8633 54.0154C68.4122 54.3745 67.8048 54.5725 67.1747 54.5659Z" fill="#c9d1d9"/>
<path d="M20.0471 10.1153C19.9802 10.0192 19.8338 9.91258 20.0153 9.8216C20.1968 9.73062 20.235 9.89439 20.305 9.98277L20.0471 10.1153Z" fill="#c9d1d9"/>
<path d="M80.7012 9.98281C80.768 9.89183 80.7999 9.72287 80.9909 9.82165C81.182 9.92042 81.0196 10.0218 80.9559 10.118L80.7012 9.98281Z" fill="#c9d1d9"/>
</svg>
