<svg width="101" height="101" viewBox="0 0 101 101" fill="none" xmlns="http://www.w3.org/2000/svg">
<path d="M55.0984 100.308H45.538C45.4656 100.042 45.231 100.115 45.0389 100.096C43.6863 99.9468 42.3262 99.8517 40.9836 99.659C32.0295 98.3203 23.6469 95.5136 16.1578 90.4098C10.987 86.8861 6.67466 82.5846 3.85468 77.0321C-0.0483754 69.38 -0.367805 61.5792 3.0536 53.6686C5.05005 49.0476 8.11209 45.1899 11.9028 41.8491C12.951 40.9249 12.9385 40.9225 11.9802 39.9617C4.49355 32.4682 1.86572 19.7464 6.8743 10.0509C10.977 2.10376 20.0583 -1.39063 28.4983 1.95989C34.1482 4.20333 38.0214 8.28784 40.7091 13.5258C41.056 14.2037 41.3928 14.3793 42.1415 14.2256C47.6462 13.1003 53.3296 13.1003 58.8343 14.2256C59.6853 14.3988 60.0821 14.2403 60.4988 13.4477C62.9395 8.75848 66.4457 5.069 71.3221 2.70364C77.7806 -0.429853 84.9528 0.484591 90.2459 5.24945C94.3336 8.92673 96.2577 13.694 96.6445 18.9734C97.2484 27.1961 94.7129 34.4385 88.7835 40.4177C88.212 40.9957 88.3617 41.2249 88.8733 41.6614C92.1511 44.4164 94.8738 47.7451 96.9015 51.4764C99.709 56.729 100.894 62.301 100.028 68.1998C99.0751 74.7837 95.9931 80.3606 91.274 85.0572C82.4697 93.8188 71.4618 98.0643 59.2361 99.7444C57.8635 99.9346 56.4411 99.8541 55.0984 100.308ZM93.9942 74.3765C97.5005 67.0927 96.9614 59.2431 92.8238 52.2836C90.6427 48.6258 87.7279 45.5825 84.3239 42.9904C83.9544 42.7202 83.6451 42.3794 83.4147 41.9887C83.1843 41.5979 83.0377 41.1655 82.9838 40.7177C82.0505 34.6945 79.0433 29.7761 74.439 25.7744C68.834 20.8974 62.1858 18.3101 54.7765 17.5371C45.9048 16.6129 37.6096 18.3053 30.1179 23.1189C24.1985 26.9205 19.961 32.0707 18.4487 38.9376C17.9296 41.298 16.854 42.8928 15.0298 44.4169C9.3449 49.1623 5.56164 55.0342 4.82046 62.4619C4.39621 66.7123 5.25718 70.7529 7.1563 74.696L7.95238 73.862C10.2651 71.4452 12.8969 69.3401 15.7784 67.6023C23.1878 63.074 31.3507 60.7111 39.9529 59.6454C40.7365 59.5479 41.3005 59.3796 41.6424 58.5896C41.8992 58.0968 42.269 57.6687 42.723 57.3386C45.8474 54.8074 49.4859 54.3563 53.3191 55.0586C56.1116 55.5707 58.5598 56.7192 59.855 59.4235C60.0546 59.843 60.4439 59.7771 60.7908 59.8283C64.366 60.3215 67.9052 61.0375 71.387 61.9718C79.1057 64.0982 86.1881 67.395 92.1749 72.7183C92.7839 73.2572 93.3903 73.8132 93.9942 74.3765ZM50.3968 96.4256C60.0297 96.3256 69.1135 94.5309 77.5635 90.2074C83.1061 87.3738 87.9025 83.6721 91.5536 78.6415C91.9179 78.1391 91.873 77.8807 91.4537 77.4612C89.7295 75.7056 87.8376 74.115 85.8038 72.711C78.0351 67.4072 69.2183 64.9492 59.9723 63.6544C59.8303 63.6174 59.6797 63.6275 59.5443 63.6831C59.4088 63.7387 59.296 63.8367 59.2236 63.9616C58.1455 65.4028 56.6332 66.2197 54.9612 66.8464C54.1526 67.1512 52.9473 66.8829 52.5779 67.6682C52.2385 68.3997 52.5779 69.3946 52.4856 70.2627C52.3958 71.1821 52.85 71.6893 53.5737 72.138C55.2756 73.1914 57.5042 72.5354 58.6521 70.7651C58.7853 70.539 58.9658 70.343 59.1819 70.1898C59.3979 70.0366 59.6446 69.9297 59.9058 69.8761C60.1671 69.8224 60.437 69.8233 60.6978 69.8786C60.9587 69.9339 61.2047 70.0423 61.4197 70.1969C62.373 70.8602 62.5302 71.9624 61.824 73.028C60.9571 74.4208 59.6294 75.4825 58.0607 76.0371C57.584 76.1981 57.3919 76.4346 57.4068 76.9467C57.4402 77.7883 57.4085 78.6312 57.312 79.4681C57.0624 81.358 55.4328 82.8821 53.5038 82.9625C51.5073 83.0357 49.5109 83.0381 47.5319 82.9625C45.6028 82.8869 43.9608 81.3287 43.7287 79.4584C43.6323 78.7513 43.6056 78.0368 43.6488 77.3247C43.7012 76.5736 43.4866 76.1956 42.7005 75.9201C41.0884 75.3544 39.908 74.2131 39.0445 72.772C38.7781 72.3521 38.6896 71.8474 38.7977 71.3649C38.9058 70.8823 39.202 70.4599 39.6235 70.1871C40.4545 69.6165 41.565 69.7872 42.2862 70.6066C42.5034 70.8504 42.688 71.1235 42.9002 71.3723C43.3905 71.973 44.0752 72.3931 44.8419 72.5636C45.6087 72.7342 46.412 72.6452 47.1202 72.3111C48.031 71.8819 48.7173 71.3137 48.5451 70.153C48.4653 69.5402 48.4653 68.9199 48.5451 68.307C48.6275 67.5755 48.333 67.3316 47.6068 67.2048C45.2385 66.7561 43.1148 65.8173 41.6998 63.7909C41.4502 63.4276 41.1782 63.4178 40.7789 63.4666C36.3942 63.9933 32.0844 64.8468 27.9069 66.2709C20.9492 68.6411 14.6954 72.0794 9.82903 77.6441C9.32992 78.2123 9.4023 78.5366 9.80908 79.0828C12.8961 83.2088 16.7966 86.435 21.2712 89.0076C30.3026 94.2065 40.165 96.311 50.3968 96.4256ZM14.7453 37.1355C15.2001 35.4875 15.8203 33.8873 16.597 32.3584C16.8191 31.9293 16.612 31.6269 16.3998 31.2977C14.3784 28.1276 13.5349 24.6698 14.1064 20.9803C14.7752 16.691 16.8965 13.299 21.3011 11.9042C25.4737 10.5825 29.2445 11.8481 32.012 14.9621C33.6192 16.7714 34.9019 16.6178 36.6338 15.6765C36.6627 15.6613 36.6939 15.6506 36.7262 15.6448C37.2552 15.54 37.2078 15.2937 36.9932 14.8889C35.1515 11.4604 32.6609 8.6146 29.2395 6.59795C22.3692 2.55977 14.5157 4.60568 10.6651 11.4433C8.74347 14.8572 8.03973 18.5564 8.32422 22.4166C8.73349 27.952 10.7649 32.8364 14.7453 37.1355ZM86.3503 37.3013C88.7947 34.7696 90.6003 31.7151 91.6234 28.3812C93.3703 22.819 93.3054 17.3518 90.6002 12.0432C87.356 5.70302 80.5132 3.16696 73.8226 5.87859C69.8297 7.49045 66.9823 10.3557 64.7662 13.8916C63.798 15.4351 63.8029 15.44 65.5149 16.0862C67.3541 16.7861 67.3466 16.7788 68.6368 15.4327C68.9987 15.0547 69.3855 14.7011 69.7948 14.3646C75.1727 9.7095 82.8391 11.1726 85.8312 17.5298C88.0772 22.2849 87.371 26.9254 84.7706 31.3782C84.6009 31.6659 84.2341 31.9024 84.4437 32.3267C85.2212 33.9296 85.859 35.5937 86.3503 37.3013ZM19.1225 28.1179C20.1732 26.7281 21.3214 25.4114 22.5589 24.1772C24.6299 22.1689 26.9398 20.4104 29.4391 18.9393C29.6612 18.8052 30.2951 18.754 29.8284 18.2224C28.2712 16.4496 26.3871 15.2376 23.9165 15.3425C21.5482 15.4449 19.8961 16.7471 18.8979 18.7832C17.3856 21.8582 17.7749 24.9332 19.1225 28.1179ZM81.9706 28.2276C83.136 25.5794 83.5278 23.0238 82.7342 20.4121C81.9856 17.9736 80.5432 16.0813 77.8005 15.6522C74.9531 15.2059 72.8768 16.591 71.0625 18.6369C75.3552 21.0394 79.074 24.3091 81.9706 28.2276ZM50.5266 63.6227C52.1911 63.569 53.8257 63.3544 55.2532 62.4034C56.5009 61.5694 56.5134 60.7574 55.3031 59.9039C52.9573 58.2506 48.0959 58.2506 45.7451 59.9039C44.5323 60.755 44.5372 61.5694 45.785 62.401C47.205 63.3569 48.8396 63.569 50.5216 63.6227H50.5266ZM50.4417 79.1097H51.3351C53.5337 79.1097 53.5163 79.1097 53.4539 76.915C53.4414 76.4517 53.3016 76.1981 52.8499 76.0737C52.0089 75.8421 51.3676 75.0422 50.6039 74.9374C49.8403 74.8325 49.2264 75.8299 48.3704 76.0103C48.3055 76.0225 48.2506 76.0737 48.1882 76.0859C47.7041 76.1859 47.6243 76.498 47.6143 76.9418C47.5619 79.1145 47.5494 79.1145 49.7505 79.1145L50.4417 79.1097Z" fill="#c9d1d9"/>
<path d="M29.7037 31.6561C28.6905 31.6195 28.0691 31.2367 27.7447 30.4783C27.3653 29.5931 27.6349 28.825 28.3286 28.1959C29.6962 26.9661 31.1869 25.8738 32.7782 24.9356C35.4169 23.3708 38.2754 22.1911 41.2631 21.4338C42.5932 21.0949 43.6638 21.585 43.9733 22.6824C44.2827 23.7797 43.7013 24.8063 42.3636 25.1623C38.1062 26.2963 34.283 28.2056 30.9864 31.0904C30.5746 31.4318 30.108 31.6854 29.7037 31.6561Z" fill="#c9d1d9"/>
<path d="M71.0598 46.7262C71.0149 47.7918 70.5382 48.4063 69.7322 48.677C69.3569 48.8203 68.9443 48.841 68.556 48.7359C68.1678 48.6308 67.8248 48.4057 67.5785 48.0942C67.0794 47.5041 66.6776 46.8311 66.0138 46.3556C65.5388 46.0036 64.9976 45.7465 64.4209 45.599C63.8442 45.4515 63.2434 45.4165 62.6529 45.496C62.0624 45.5754 61.4937 45.7679 60.9793 46.0622C60.4649 46.3566 60.0149 46.7471 59.6551 47.2115C59.453 47.4553 59.2583 47.7309 59.0437 47.9772C58.295 48.8331 57.1496 49.016 56.2986 48.421C55.4476 47.826 55.2205 46.7628 55.8319 45.7386C56.4033 44.7481 57.1787 43.8842 58.109 43.2013C59.0394 42.5184 60.1046 42.0315 61.2373 41.7711C63.0074 41.3519 64.868 41.4924 66.5512 42.1725C68.2343 42.8527 69.6531 44.0373 70.6031 45.5557C70.8651 45.9751 71.0847 46.4043 71.0598 46.7262Z" fill="#c9d1d9"/>
<path d="M38.1788 41.5297C40.9239 41.659 43.4195 42.9928 45.119 45.6167C45.8202 46.7043 45.6331 47.7967 44.6897 48.4527C43.7913 49.0794 42.5361 48.8745 41.8598 47.8016C40.4797 45.6069 37.7396 44.8754 35.6658 45.9556C34.7849 46.4214 34.2034 47.1383 33.6095 47.8772C32.8833 48.777 31.9799 49.0062 31.079 48.577C29.9734 48.0503 29.6715 46.8481 30.3578 45.685C31.8351 43.1733 34.7724 41.5273 38.1788 41.5297Z" fill="#c9d1d9"/>
<path d="M23.9908 33.8508C23.9968 33.3457 24.2078 32.8636 24.5776 32.5106C24.9473 32.1575 25.4454 31.9624 25.9623 31.9683C26.4792 31.9741 26.9726 32.1803 27.3339 32.5416C27.6952 32.9029 27.8949 33.3896 27.8889 33.8947C27.891 34.1537 27.8398 34.4105 27.7385 34.6499C27.6372 34.8892 27.4877 35.1063 27.299 35.2882C27.1103 35.4701 26.8861 35.6131 26.6398 35.7089C26.3935 35.8046 26.13 35.8511 25.865 35.8455C25.3491 35.8147 24.8656 35.5897 24.516 35.2176C24.1665 34.8456 23.9782 34.3557 23.9908 33.8508Z" fill="#c9d1d9"/>
</svg>
