<svg width="101" height="101" viewBox="0 0 101 101" fill="none" xmlns="http://www.w3.org/2000/svg">
<path d="M45.8134 100.287C44.6706 99.7903 43.4206 99.9007 42.242 99.7351C31.4492 98.1898 21.8564 94.154 13.8064 86.9655C7.19935 81.0533 2.82796 73.8578 1.22796 65.2482C0.856724 63.1727 0.677447 61.0695 0.692254 58.9634C0.692254 40.4563 0.692254 21.9446 0.692254 3.42832C0.692254 2.29692 0.970823 1.35869 2.12082 0.882677C3.27081 0.406662 4.19938 0.882673 4.97794 1.65534L5.47793 2.13825C12.3636 8.78866 19.2421 15.4414 26.1135 22.0964C26.3116 22.3579 26.6025 22.5397 26.9305 22.6071C27.2586 22.6746 27.6009 22.6229 27.8921 22.462C35.9802 19.0429 44.7933 17.5274 53.6062 18.0399C60.2565 18.3274 66.7946 19.7985 72.8918 22.3792C73.2348 22.5923 73.6501 22.6682 74.0499 22.5909C74.4498 22.5137 74.8029 22.2893 75.0346 21.9653C81.9156 15.2689 88.8203 8.6001 95.7488 1.95888C96.0668 1.62617 96.4213 1.32777 96.8059 1.06894C97.132 0.869377 97.505 0.752808 97.8903 0.730103C98.2756 0.707397 98.6605 0.779296 99.0092 0.939094C99.358 1.09889 99.6591 1.34139 99.8846 1.64396C100.11 1.94653 100.253 2.29933 100.299 2.66945C100.309 2.86248 100.309 3.05593 100.299 3.24895C100.299 21.9929 100.299 40.73 100.299 59.467C100.299 68.0491 97.2488 75.6446 91.7274 82.2812C84.356 91.1185 74.6775 96.3823 63.3276 98.9418C60.649 99.538 57.9266 99.9324 55.1848 100.121C55.0205 100.121 54.8419 100.121 54.7848 100.308L45.8134 100.287ZM22.5493 25.256L5.34223 8.63689C5.34223 8.72657 5.34223 8.87834 5.34223 9.02322C5.34223 25.9804 5.34223 42.9353 5.34223 59.8878C5.36979 64.1143 6.35986 68.2831 8.24221 72.0986C12.6279 81.1705 19.9207 87.3863 29.2278 91.4152C38.1164 95.2851 47.967 96.6139 57.6133 95.244C67.8633 93.8643 76.9418 90.0837 84.4417 83.1091C91.6274 76.4656 95.5774 68.3733 95.5774 58.6116C95.5774 42.2385 95.5774 25.8677 95.5774 9.49924V8.28505C95.1774 8.71277 94.9703 8.97493 94.7417 9.17499L79.1489 24.235C78.1918 25.1594 78.1918 25.1594 79.3275 25.9183C81.3187 27.2424 83.1325 28.7996 84.7274 30.5543C84.9474 30.7733 85.1186 31.0334 85.2305 31.3187C85.3424 31.604 85.3927 31.9084 85.3782 32.2132C85.3637 32.5179 85.2848 32.8166 85.1462 33.0908C85.0077 33.365 84.8126 33.6089 84.5728 33.8075C84.333 34.006 84.0536 34.1551 83.7519 34.2455C83.4502 34.3359 83.1325 34.3656 82.8185 34.333C82.5044 34.3003 82.2006 34.2059 81.9257 34.0555C81.6509 33.9051 81.4109 33.702 81.2204 33.4587C78.6632 30.4025 75.2918 28.3881 71.6847 26.8151C62.0828 22.6194 51.3748 21.3859 41.0206 23.283C35.1706 24.2833 29.5921 26.0425 24.6493 29.3608C22.8142 30.6135 21.1065 32.0318 19.5493 33.5966C19.3164 33.8657 19.0203 34.0771 18.6857 34.2132C18.3511 34.3494 17.9877 34.4063 17.6257 34.3793C17.2637 34.3523 16.9136 34.2422 16.6046 34.058C16.2956 33.8739 16.0367 33.6211 15.8493 33.3207C15.2493 32.4376 15.4136 31.3683 16.3064 30.4025C18.1525 28.4377 20.2503 26.7083 22.5493 25.256Z" fill="#c9d1d9"/>
<path d="M46.8203 74.0166C45.1878 73.441 43.7567 72.4318 42.6918 71.1053C41.6059 69.701 41.1284 67.9438 41.3604 66.2055C41.5924 64.4672 42.5156 62.8844 43.9346 61.7919C45.6459 60.4703 47.7445 59.7024 49.9329 59.5971C52.1214 59.4919 54.2886 60.0546 56.1274 61.2056C61.1274 64.5584 60.6559 70.7948 55.2488 73.4992L54.306 73.9545C55.7194 75.2872 57.5509 76.1292 59.5131 76.3484C61.6486 76.6572 63.831 76.3823 65.8131 75.555C67.2916 74.9548 68.613 75.4101 69.1345 76.5829C69.6559 77.7557 69.0844 79.101 67.5702 79.6736C61.4702 81.9777 55.8274 81.4327 50.8774 77.0106C50.3989 76.5829 50.2346 76.8451 49.9275 77.121C44.5775 82.1364 35.3132 82.3158 29.8633 77.4798C28.8732 76.6717 28.0759 75.6664 27.5261 74.5328C26.9762 73.3991 26.6867 72.164 26.6776 70.9121C26.6539 70.3342 26.8645 69.7702 27.2647 69.3399C27.6648 68.9096 28.223 68.647 28.8204 68.6079C29.3959 68.5534 29.9707 68.7184 30.4218 69.0678C30.873 69.4172 31.1647 69.9231 31.2347 70.4775C31.6847 74.2649 34.4347 75.6861 37.7775 76.2932C39.2417 76.6036 40.7597 76.5905 42.2179 76.2549C43.6762 75.9192 45.0371 75.2696 46.1989 74.3546C46.3966 74.2265 46.6044 74.1135 46.8203 74.0166ZM50.4846 64.0478C49.8148 64.0121 49.1444 64.106 48.5127 64.324C47.881 64.542 47.3007 64.8797 46.806 65.3172C46.5406 65.5309 46.3271 65.7983 46.1805 66.1005C46.034 66.4027 45.958 66.7323 45.958 67.0661C45.958 67.3998 46.034 67.7294 46.1805 68.0316C46.3271 68.3338 46.5406 68.6012 46.806 68.8149C48.6274 70.5396 52.356 70.5258 54.156 68.8149C54.4139 68.6018 54.6209 68.3373 54.7628 68.0396C54.9048 67.7419 54.9783 67.418 54.9783 67.0902C54.9783 66.7624 54.9048 66.4385 54.7628 66.1408C54.6209 65.8431 54.4139 65.5786 54.156 65.3655C53.6662 64.9202 53.0889 64.5741 52.4584 64.3478C51.8278 64.1215 51.1566 64.0195 50.4846 64.0478Z" fill="#c9d1d9"/>
<path d="M28.9565 41.7717C31.574 41.8405 34.0657 42.8708 35.9238 44.6526C37.7819 46.4344 38.8665 48.8336 38.9565 51.361C38.9565 52.8649 38.0922 53.9066 36.735 53.9756C35.3779 54.0446 34.4493 53.0926 34.3208 51.6301C34.1136 49.2776 33.0708 47.4563 30.7065 46.6146C29.9364 46.3577 29.1154 46.2753 28.307 46.3737C27.4986 46.472 26.7245 46.7487 26.0445 47.1821C25.3644 47.6155 24.7967 48.1942 24.3851 48.8733C23.9735 49.5525 23.7291 50.3139 23.6708 51.0988C23.6369 51.4862 23.5772 51.871 23.4922 52.2509C23.3687 52.774 23.051 53.2352 22.5992 53.5474C22.1474 53.8595 21.5928 54.0009 21.0403 53.9448C20.4879 53.8887 19.9758 53.6391 19.6011 53.243C19.2263 52.847 19.0148 52.3321 19.0066 51.7956C18.9646 50.4653 19.2096 49.141 19.7261 47.907C20.2426 46.673 21.0192 45.5563 22.0066 44.6278C22.9049 43.7226 23.9839 43.0028 25.1785 42.5119C26.3731 42.021 27.6583 41.7692 28.9565 41.7717Z" fill="#c9d1d9"/>
<path d="M65.0617 51.7054L65.0606 51.7176L65.0597 51.7299C65.0463 51.9174 64.9584 52.1045 64.797 52.2479L65.7933 53.3692L64.797 52.2479C64.6403 52.3871 64.4272 52.4723 64.1973 52.4757C64.0873 52.4669 63.9812 52.4387 63.8846 52.3937C63.7801 52.3451 63.6901 52.2784 63.6183 52.2002C63.5466 52.122 63.4944 52.0338 63.462 51.942C63.4296 51.8503 63.4169 51.7547 63.4236 51.6601L63.4268 51.6156L63.4273 51.571C63.4516 49.4092 64.3443 47.3305 65.9339 45.7766C67.5163 44.2297 69.6663 43.325 71.9372 43.2653C74.1794 43.3372 76.2998 44.232 77.8687 45.7539C79.4399 47.2779 80.3388 49.3135 80.3986 51.4407C80.3954 51.8886 80.2711 52.1342 80.1719 52.2529C80.0834 52.3588 79.9346 52.4639 79.6387 52.487C79.397 52.506 79.2243 52.4315 79.0955 52.3089C78.9608 52.1806 78.8093 51.9325 78.7752 51.5178C78.7042 49.704 77.9303 47.9921 76.6224 46.7184C75.8031 45.8815 74.7635 45.2874 73.6235 44.9964C72.4853 44.7058 71.2867 44.7275 70.1603 45.0591C68.9644 45.3735 67.8754 46.0034 67.0171 46.8855C66.1522 47.7743 65.5558 48.8843 65.3023 50.0929C65.1897 50.6253 65.1094 51.1637 65.0617 51.7054Z" stroke="#c9d1d9" stroke-width="3"/>
</svg>
