<svg width="101" height="101" viewBox="0 0 101 101" fill="none" xmlns="http://www.w3.org/2000/svg">
<path d="M0.766516 24.4982C1.78913 22.4242 3.34326 22.7018 4.83962 22.9562C9.58869 23.7889 13.9507 25.8397 17.55 30.3038C18.4665 31.4038 19.2672 32.6642 19.9303 34.0508C20.2539 34.7524 20.5081 34.7293 20.9876 34.2898C24.0395 31.5565 27.2662 29.188 30.6302 27.2121C31.3582 26.7649 31.4217 26.3255 31.2079 25.3694C29.8214 18.6618 27.8859 12.224 26.1411 5.68596C26.0429 5.32359 25.9389 4.96122 25.8464 4.59115C25.2687 2.22419 26.4242 0.381519 28.2499 0.736177C30.3702 1.12167 32.4848 1.50716 34.6051 1.99289C40.8563 3.48091 47.0093 5.44694 52.8272 8.93183C56.2417 10.9981 59.4366 13.4961 61.9325 17.3357C62.0414 17.4903 62.173 17.6132 62.3192 17.6967C62.4653 17.7803 62.6228 17.8228 62.7818 17.8214C69.6244 18.8713 76.2188 21.8674 82.12 26.6076C88.0211 31.3478 93.0919 37.7218 96.9901 45.2996C98.0416 47.2657 98.9717 49.3396 99.8788 51.4136C100.153 51.9484 100.302 52.5796 100.307 53.2273C100.312 53.875 100.173 54.5102 99.9077 55.0527C95.0604 66.2706 88.5897 75.3067 80.0044 81.4978C74.6761 85.3592 68.8332 87.7923 62.8049 88.6603C61.3258 88.8762 59.8352 88.9995 58.3504 89.1383C58.1915 89.1268 58.0325 89.1591 57.8833 89.2334C57.7342 89.3077 57.5982 89.4223 57.4838 89.5701C53.6187 95.1444 48.6096 97.7349 43.1904 99.2306C41.0019 99.8341 38.7795 100.193 36.5463 100.302C34.8131 100.395 33.9464 99.3 33.9753 96.987C34.0273 92.7389 34.2007 88.5061 35.3793 84.5046C35.957 82.4769 35.9917 82.4769 34.4607 81.6134C29.7235 79.0563 25.1857 75.8852 20.9125 72.1456C20.381 71.6676 20.1788 71.8758 19.8668 72.4694C16.6314 78.7299 11.9286 81.7676 6.50931 83.1785C5.7178 83.379 4.89742 83.4175 4.1059 83.6103C2.71354 83.9418 1.54071 83.6103 0.743419 81.8987V75.9312C0.998753 75.113 1.1284 74.2347 1.12472 73.3484C1.84112 66.0702 3.4877 59.3163 7.34127 53.8191C7.62436 53.4182 7.69947 53.1792 7.34127 52.7012C3.75346 47.6511 2.08377 41.4524 1.26915 34.7293C1.11894 33.488 1.2056 32.1773 0.691406 31.0208L0.766516 24.4982ZM56.5825 83.6874C63.2844 83.564 69.0619 82.0683 74.5678 78.8764C83.5979 73.6491 90.4558 65.1373 95.5631 53.981C95.692 53.7507 95.7582 53.4686 95.7508 53.1813C95.7435 52.8939 95.663 52.6185 95.5226 52.4005C94.1406 49.3745 92.5857 46.4953 90.8718 43.7885C85.5791 35.3017 78.5763 29.0145 70.6911 25.6701C63.4346 22.5861 56.0626 21.8151 48.5808 24.2669C42.3491 26.4041 36.3106 29.4418 30.5724 33.3261C27.1811 35.5697 23.8359 37.952 20.953 41.2904C19.9246 42.4855 18.5264 41.9998 17.8389 40.3421C17.3993 39.1404 16.8974 37.9811 16.3368 36.8727C13.6214 32.0771 9.83137 29.8181 5.55027 28.6924C4.97252 28.5459 5.01295 28.97 5.03028 29.4634C5.15476 33.0479 5.65055 36.5922 6.50353 39.9952C7.60125 44.2279 9.16118 48.0521 12.0095 50.6889C13.6272 52.1846 13.6098 54.2971 11.9575 55.7928C11.0416 56.6121 10.2302 57.6221 9.55404 58.7843C6.41111 64.1813 5.37692 70.4494 5.01872 77.0491C4.9725 77.9666 5.31337 77.8201 5.70624 77.7045C10.9059 76.3707 15.1986 73.2713 17.6483 66.6253C18.5264 64.2352 19.8783 63.8806 21.3805 65.623C22.1603 66.5333 22.9908 67.3632 23.8648 68.1056C29.8838 73.0866 36.327 77.0907 43.0575 80.0329C47.6737 82.1377 52.3765 83.6566 56.5825 83.6874ZM30.9306 6.71138C31.0924 7.33588 31.1848 7.69825 31.2831 8.06062C32.5714 13.0258 34.0331 17.9139 34.998 23.0179C35.2291 24.2284 35.541 24.3363 36.3556 23.8891C40.621 21.5203 45.04 19.6776 49.5572 18.3842C51.6168 17.8447 53.6983 17.4663 55.791 17.2509C48.0146 10.9596 39.6084 8.65428 30.9306 6.71138ZM52.0068 88.668C48.2693 87.8565 44.595 86.592 41.0296 84.8901C40.215 84.5046 39.8741 84.7976 39.5275 85.7074C38.5453 88.3211 38.4124 91.166 38.1987 93.9956C38.1409 94.7666 38.5338 94.5584 38.8168 94.5044C40.0012 94.2809 41.1914 94.1035 42.3642 93.7797C45.8067 92.9745 49.0887 91.2347 52.0068 88.668Z" fill="#c9d1d9"/>
<path d="M58.8828 53.1483C58.981 45.0529 60.1018 37.2813 63.1119 30.1419C63.8341 28.4303 65.03 27.8828 66.1162 28.7001C67.2023 29.5173 67.4392 31.0825 66.7459 32.7632C65.5745 35.5955 64.6978 38.6278 64.1403 41.7762C62.3088 52.0072 62.7422 61.9916 65.9891 71.6676C66.2375 72.4386 66.5668 73.1093 66.8441 73.8418C67.4219 75.4686 67.1561 76.9952 66.1162 77.7739C65.0762 78.5526 63.9265 78.0745 63.2274 76.5248C61.8048 73.2338 60.7499 69.6832 60.0961 65.9854C59.2888 61.7914 58.8812 57.4784 58.8828 53.1483Z" fill="#c9d1d9"/>
<path d="M50.5625 53.2023C50.7012 45.1223 51.7815 37.3429 54.7916 30.1881C54.9381 29.731 55.1664 29.3289 55.4565 29.017C55.7466 28.7052 56.0897 28.4931 56.4555 28.3994C56.8244 28.2991 57.2072 28.3432 57.5578 28.5265C57.9084 28.7098 58.2117 29.0245 58.4314 29.4325C58.6894 29.8855 58.8363 30.4338 58.8518 31.0025C58.8673 31.5711 58.7507 32.1322 58.5181 32.609C57.5869 34.7826 56.8426 37.0897 56.2995 39.4863C54.1469 48.7127 54.2115 58.6068 56.4844 67.7818C56.6158 68.2668 56.7201 68.7642 56.7964 69.2698C56.9111 69.9505 56.8267 70.664 56.5604 71.2645C56.294 71.8649 55.866 72.307 55.3636 72.5003C54.8572 72.6962 54.3135 72.6205 53.8483 72.2893C53.3832 71.958 53.0334 71.3974 52.8735 70.727C52.1495 68.1828 51.6097 65.552 51.2616 62.8705C50.7977 59.685 50.5636 56.4474 50.5625 53.2023Z" fill="#c9d1d9"/>
<path d="M79.5994 44.9449C79.5903 46.0341 79.3395 47.0953 78.8788 47.9945C78.4181 48.8937 77.7681 49.5906 77.0108 49.9972C76.2535 50.4038 75.423 50.5019 74.624 50.2792C73.825 50.0564 73.0933 49.5228 72.5214 48.7456C71.9495 47.9684 71.5629 46.9825 71.4105 45.9123C71.2581 44.8422 71.3467 43.7358 71.6651 42.7328C71.9835 41.7298 72.5174 40.8752 73.1995 40.2768C73.8816 39.6784 74.6812 39.3631 75.4974 39.3706C76.595 39.3849 77.6436 39.9799 78.4127 41.0251C79.1818 42.0703 79.6086 43.4801 79.5994 44.9449Z" fill="#c9d1d9"/>
</svg>
