<svg width="30" height="30" viewBox="0 0 30 30" fill="none" xmlns="http://www.w3.org/2000/svg">
<path d="M26.9998 11.9536C27.0128 13.8371 26.4121 15.3319 25.552 16.7364C24.3629 18.6806 22.8018 20.2842 21.1138 21.7688C19.5996 23.0901 17.9976 24.3036 16.319 25.4006C15.1053 26.2008 13.8848 26.2008 12.6727 25.3944C10.247 23.7799 7.94448 22.0075 5.9182 19.8868C4.60203 18.5087 3.44044 17.0132 2.66146 15.2401C1.40651 12.3836 1.97277 9.01858 4.05873 6.92816C6.39569 4.58887 10.0687 4.36178 12.7286 6.38766C13.3374 6.84169 13.8786 7.38256 14.3355 7.99359C14.4694 8.17479 14.5353 8.14913 14.663 7.98737C15.8376 6.48488 17.3046 5.45755 19.1893 5.10525C22.1246 4.55698 25.1411 6.19402 26.3547 9.00536C26.7894 10.0062 27.0036 11.0507 26.9998 11.9536Z" fill="#FB7756"/>
</svg>
