<svg width="18" height="18" viewBox="0 0 18 18" fill="none" xmlns="http://www.w3.org/2000/svg">
<path d="M7.27408 4.3619L4.99056 1.72604C4.72731 1.42229 4.24469 1.42364 3.93892 1.73009L2.06108 3.6113C1.50218 4.17088 1.34221 5.0018 1.66553 5.66802C3.59711 9.66735 6.82253 12.8973 10.8192 14.8345C11.4847 15.1578 12.3149 14.9978 12.8738 14.4382L14.7692 12.5395C15.0764 12.2324 15.077 11.747 14.7706 11.4838L12.1246 9.21242C11.8479 8.97483 11.4179 9.00587 11.1405 9.28397L10.2198 10.206C10.1726 10.2554 10.1106 10.288 10.0431 10.2987C9.97572 10.3094 9.90663 10.2977 9.84649 10.2654C8.34154 9.39879 7.09317 8.14879 6.22851 6.64271C6.19612 6.58247 6.1844 6.51327 6.19513 6.44572C6.20586 6.37817 6.23845 6.31601 6.28791 6.26877L7.2059 5.3501C7.484 5.07065 7.51437 4.63865 7.27408 4.36123V4.3619Z" stroke="white" stroke-width="2" stroke-linecap="round" stroke-linejoin="round"/>
</svg>
