<svg width="101" height="101" viewBox="0 0 101 101" fill="none" xmlns="http://www.w3.org/2000/svg">
<path d="M53.4251 0.692322C54.3655 1.03534 55.3604 1.22997 56.1917 1.82357C58.0102 3.12755 58.761 4.89132 58.7688 6.97865C58.7688 9.63769 58.7688 12.2967 58.7688 14.9558C58.7688 17.6148 57.6777 19.5951 55.0877 20.7628C54.9296 20.8183 54.7965 20.9224 54.7101 21.0582C54.6237 21.1939 54.5892 21.3531 54.6123 21.5097C54.6305 23.0326 54.6357 24.558 54.6123 26.0809C54.6123 26.5188 54.8461 26.8107 55.0929 27.1124C58.1583 30.9465 61.177 34.8171 64.3074 38.6025C66.1834 40.8296 67.1644 43.603 67.0793 46.4385C67.0195 51.2676 67.0637 56.0991 67.0637 60.9282V61.9791C67.4793 62.1129 67.7001 61.8429 67.9495 61.7115C70.7682 60.2129 73.5271 58.6073 76.4003 57.2109C86.1811 52.4621 98.4481 58.3202 100.069 68.555C101.124 75.2159 98.6767 80.6946 92.564 84.2148C84.0223 89.1364 75.2365 93.7027 66.5441 98.3834C64.7528 99.3669 62.7515 99.9675 60.6834 100.142C60.6107 100.142 60.5431 100.252 60.473 100.308H56.3165C56.1476 99.9598 55.7709 100.079 55.5008 100.028C50.913 99.14 47.3046 96.8897 44.7483 93.2161C44.3768 92.6809 43.9352 92.7296 43.4312 92.7296C32.7559 92.7296 22.0805 92.7296 11.4052 92.7296C5.25872 92.7296 0.725511 88.5282 0.709924 82.7551C0.67875 70.4039 0.709922 58.0526 0.691737 45.7013C0.672148 43.2887 1.5235 40.9406 3.10771 39.0379C5.48473 36.0967 7.83837 33.136 10.1972 30.1802C11.1688 28.9638 12.5119 27.8544 12.9925 26.4848C13.4835 25.0762 13.1042 23.4073 13.1535 21.8625C13.1717 21.2859 13.0236 20.9794 12.4157 20.685C10.2985 19.6559 9.06714 17.987 9.03856 15.7172C8.98141 12.5424 8.96843 9.36521 9.05935 6.19043C9.1217 4.052 10.3245 2.49502 12.2911 1.41973C12.7872 1.14726 13.4367 1.17645 13.8212 0.719086L53.4251 0.692322ZM33.9414 48.5526C24.5459 48.5526 15.1495 48.5469 5.75232 48.5355C5.02752 48.5355 4.84827 48.701 4.85086 49.3822C4.87684 58.3624 4.87684 67.341 4.85086 76.318C4.85086 77.0065 5.0431 77.1622 5.7601 77.1622C18.2661 77.1411 30.772 77.1411 43.278 77.1622C43.5607 77.185 43.8442 77.1276 44.0917 76.9975C44.3391 76.8673 44.539 76.6703 44.6652 76.4323C45.8597 74.5226 47.5413 72.9202 49.5595 71.7687C53.716 69.4283 57.9401 67.1464 62.1512 64.8814C62.4099 64.7715 62.6253 64.5886 62.7674 64.3582C62.9095 64.1279 62.9711 63.8617 62.9435 63.5969C62.9072 58.8936 62.9072 54.1942 62.9435 49.4989C62.9435 48.735 62.7409 48.5404 61.9278 48.5428C52.5912 48.5623 43.265 48.5526 33.9362 48.5526H33.9414ZM4.92101 44.6601H49.6037C53.7134 44.6601 57.8258 44.6309 61.9356 44.682C62.8474 44.6942 62.8916 44.3974 62.6708 43.743C62.3823 42.9123 61.9429 42.1346 61.3718 41.444C58.2371 37.5353 55.1137 33.6201 52.0015 29.6985C51.8535 29.4895 51.6478 29.3222 51.4062 29.2142C51.1646 29.1062 50.8963 29.0617 50.6298 29.0854C44.7925 29.1049 38.9396 29.0854 33.1152 29.0854C32.6658 29.0854 32.2138 29.1073 31.767 29.0708C30.5512 28.9662 29.7537 28.1731 29.7666 27.11C29.7666 26.0931 30.546 25.3292 31.7228 25.21C32.0331 25.1884 32.3445 25.1828 32.6554 25.1929C37.4926 25.1929 42.3289 25.1929 47.1643 25.1929C48.232 25.1929 49.705 25.5457 50.2583 25.0372C50.9545 24.3974 50.3934 23.018 50.4869 21.9622C50.5311 21.4635 50.37 21.2932 49.8089 21.2956C39.2028 21.3102 28.5968 21.3102 17.9907 21.2956C17.4529 21.2956 17.2841 21.4221 17.2945 21.9379C17.3308 23.3975 17.2737 24.8572 17.3204 26.3169C17.3601 27.259 17.0364 28.1829 16.4086 28.92C13.0496 33.0727 9.72958 37.2547 6.38877 41.4221C5.62761 42.3709 5.05609 43.3829 4.91581 44.6601H4.92101ZM58.6961 96.4031C60.6369 96.4225 62.551 95.9788 64.258 95.1137C68.0405 93.1164 71.7917 91.0583 75.5586 89.0463C75.9768 88.825 76.0781 88.6741 75.8184 88.2508C71.8593 81.8477 67.9149 75.4414 63.9852 69.0318C63.7255 68.6109 63.5254 68.5963 63.1176 68.8226C59.4001 70.8637 55.6228 72.8075 51.9625 74.9362C49.6693 76.2744 47.9121 78.2842 46.9637 80.6535C46.0153 83.0228 45.9287 85.6191 46.7175 88.0392C47.4733 90.4605 49.0497 92.5859 51.2086 94.0947C53.3675 95.6034 55.9919 96.4136 58.6857 96.4031H58.6961ZM33.9466 17.4226H51.9703C53.8251 17.4226 54.6097 16.6928 54.6201 14.9412C54.6305 12.3186 54.6305 9.69446 54.6201 7.06867C54.6201 5.31706 53.8407 4.58722 51.9781 4.58478C39.893 4.58478 27.8079 4.58478 15.7228 4.58478C13.9043 4.58478 13.1665 5.29272 13.1587 7.01757C13.1587 9.57687 13.1587 12.1264 13.1587 14.6955C13.1587 16.8217 13.7952 17.425 16.0293 17.425L33.9466 17.4226ZM96.2035 71.1872C96.1594 70.5596 96.1672 70.0025 96.071 69.4624C94.5773 61.1398 85.4199 56.953 77.5329 61.023C74.2727 62.7065 71.0825 64.5068 67.8508 66.2389C67.4248 66.4676 67.2533 66.6282 67.5521 67.1075C71.5008 73.4814 75.4304 79.8642 79.341 86.2559C79.6294 86.7279 79.8606 86.7182 80.2944 86.4724C83.6248 84.643 87.015 82.906 90.2961 81.0011C94.1694 78.7654 96.0399 75.3716 96.2139 71.1945L96.2035 71.1872ZM23.7812 81.0279H6.68493C4.82748 81.0279 4.82748 81.0279 4.86645 82.7308C4.94179 86.38 7.52143 88.8128 11.4078 88.8128C21.5393 88.8298 31.6475 88.8128 41.7686 88.8347C42.483 88.8347 42.6233 88.6814 42.4596 88.0343C41.9268 86.0463 41.8912 83.9699 42.3557 81.9669C42.548 81.169 42.3557 81.006 41.5062 81.0108C35.5962 81.0425 29.6887 81.0279 23.7812 81.0279Z" fill="#c9d1d9"/>
<path d="M31.817 68.5257C31.7209 67.6524 32.3028 66.2389 31.5962 65.6405C30.9806 65.1174 29.4972 65.4896 28.3957 65.4775C27.4995 65.4775 26.598 65.5018 25.7018 65.4775C24.4028 65.4239 23.556 64.66 23.543 63.5653C23.543 62.4267 24.3873 61.6191 25.7511 61.6045C27.5125 61.5704 29.2764 61.5655 31.0377 61.6045C31.695 61.6215 31.8456 61.422 31.817 60.8357C31.7729 59.2811 31.7911 57.7242 31.817 56.1696C31.817 54.7099 32.5964 53.8463 33.8382 53.8195C35.0799 53.7928 35.9424 54.7172 35.9606 56.1988C35.9788 57.7558 35.9996 59.3128 35.9606 60.8649C35.9398 61.4877 36.1502 61.6215 36.7711 61.5947C38.361 61.5509 39.9509 61.5777 41.5381 61.5801C43.2371 61.5801 44.2191 62.2856 44.2399 63.502C44.2607 64.7184 43.2527 65.4702 41.4862 65.4726C39.9275 65.4726 38.3688 65.5018 36.8231 65.458C36.1684 65.441 35.9372 65.5845 35.9606 66.2438C36.0151 67.83 36.0099 69.421 35.9606 71.0072C35.9112 72.5934 34.7604 73.5105 33.3887 73.1553C32.9618 73.0714 32.5775 72.8554 32.2976 72.5421C32.0177 72.2288 31.8585 71.8364 31.8456 71.4281C31.8456 71.3308 31.8222 71.2359 31.8222 71.1386C31.8145 70.3309 31.817 69.5207 31.817 68.5257Z" fill="#c9d1d9"/>
</svg>
