<svg width="101" height="101" viewBox="0 0 101 101" fill="none" xmlns="http://www.w3.org/2000/svg">
<path d="M0.691406 34.445C1.1303 33.8596 1.69017 33.414 2.3182 33.1502C4.62094 32.0546 6.89665 30.8856 9.21291 29.8215C9.51335 29.6992 9.78258 29.4911 9.99595 29.2164C10.2093 28.9416 10.36 28.6089 10.4341 28.2489C12.0756 21.9432 15.0957 16.241 19.199 11.6997C24.3858 6.03302 30.6271 2.87206 37.5488 1.36759C39.2709 1.00008 41.0132 0.775848 42.7627 0.696608C43.4837 0.665156 44.1146 0.79096 44.5112 1.60872C44.9077 2.42648 44.5787 3.18134 44.1191 3.8733C43.2584 5.15236 42.4247 6.45239 41.5595 7.72097C41.2441 8.18751 41.1089 8.43389 41.7533 8.71172C47.9991 11.3328 52.6496 16.2288 56.1736 22.6923C59.4046 28.6106 63.1134 34.0728 67.7955 38.5495C71.3735 41.9673 75.3301 44.5045 79.9626 45.3642C82.5201 45.8963 85.1508 45.6893 87.6234 44.7614C88.4751 44.4311 89.2412 44.3525 89.7639 45.3432C90.2867 46.334 89.818 47.0155 89.2592 47.7441C87.9794 49.4111 86.7537 51.1252 85.6947 52.5668C86.9551 52.6321 88.2177 52.5141 89.453 52.2156C92.4013 51.6662 95.2128 50.3823 97.6951 48.4518C98.362 47.9276 99.047 47.6393 99.75 48.2736C100.453 48.9078 100.367 49.6522 100.156 50.5224C96.902 63.9683 89.836 73.9649 79.6562 81.1046C73.3672 85.5084 66.3073 88.2101 58.9991 89.0096C58.5903 89.0093 58.1914 89.1556 57.8568 89.4286C57.5221 89.7015 57.268 90.0879 57.1289 90.535C56.3448 92.6319 55.4075 94.6553 54.4251 96.9199H57.2867C57.6759 96.8988 58.0658 96.9094 58.4538 96.9513C58.7973 96.9767 59.1195 97.1535 59.3548 97.4457C59.5901 97.7379 59.7208 98.1236 59.7201 98.5239C59.7496 98.9255 59.6475 99.3253 59.4345 99.6431C59.2214 99.961 58.913 100.173 58.571 100.238C58.2842 100.299 57.9923 100.32 57.7012 100.301H37.1072C36.9089 100.301 36.7152 100.301 36.5214 100.301C36.128 100.293 35.7526 100.108 35.4744 99.7839C35.1961 99.4602 35.0367 99.0235 35.0298 98.5659C35.0342 98.3377 35.0783 98.113 35.1595 97.9052C35.2407 97.6975 35.3573 97.511 35.5022 97.3572C35.6471 97.2033 35.8173 97.0852 36.0026 97.0101C36.1878 96.9349 36.3842 96.9042 36.58 96.9199C38.4912 96.8001 40.4068 96.8142 42.3166 96.9618C44.3129 97.2029 45.4935 96.5215 46.1199 94.2359C46.5944 92.7945 47.1812 91.4066 47.8729 90.0895C48.2064 89.3713 48.3235 89.0725 47.4222 88.9467C40.6041 88.0241 34.124 85.8015 28.1666 81.7441C19.181 75.6266 12.9216 66.9353 9.92942 55.2507C9.00619 51.67 8.52669 47.9544 8.50542 44.2162C8.52063 43.83 8.44878 43.4459 8.29701 43.102C8.14524 42.7581 7.91881 42.4664 7.6402 42.2557C5.67993 40.5153 3.76474 38.7173 1.83602 36.9297C1.44848 36.568 1.08346 36.1644 0.709435 35.7817L0.691406 34.445ZM47.1068 57.2532C47.1068 57.421 47.0572 57.5258 47.1068 57.5625C47.2312 57.7369 47.3701 57.8967 47.5214 58.0395C49.2097 59.6309 51.1341 60.8497 53.1994 61.6356C58.2735 63.5332 63.244 62.8517 68.147 60.7916C73.8385 58.396 78.6963 54.4277 83.1982 49.7833C83.3649 49.6103 83.6758 49.5107 83.6172 49.0546C80.4299 49.1512 77.2612 48.4597 74.3206 47.0259C69.7692 44.8924 65.9388 41.5323 62.478 37.5431C58.7467 33.2341 55.8221 28.2122 52.9155 23.1693C49.66 17.3154 44.672 13.0536 38.8962 11.1912C37.0261 10.5779 36.7377 9.44036 37.9184 7.64234C38.5898 6.62014 39.2703 5.60317 40.0318 4.44468C38.9564 4.50019 37.888 4.67573 36.8413 4.96888C29.9331 6.76167 23.7729 10.2109 19.181 16.6325C12.5792 25.8218 10.4386 36.5995 11.6824 48.2683C13.0028 60.6658 18.4915 70.285 27.378 77.0996C37.292 84.7688 48.3461 87.0962 60.0626 85.4188C66.9685 84.4345 73.5932 81.6441 79.4399 77.2569C86.3481 72.1249 91.6836 65.3469 95.1851 56.6818C95.6132 55.6334 95.9511 54.5169 96.3928 53.2745C96.0638 53.3951 95.9421 53.4265 95.8249 53.4842C91.6302 55.673 86.9877 56.4328 82.4366 55.6753C82.1838 55.6351 81.9265 55.6578 81.6818 55.7418C81.4371 55.8258 81.2106 55.9694 81.0171 56.1628C77.4092 59.4299 73.3966 62.0422 69.1158 63.9106C63.5505 66.2486 57.9175 66.9038 52.1719 64.7441C42.4382 61.0747 35.8499 48.7611 39.0765 36.7934C40.3969 31.8974 43.1863 28.317 46.9626 25.7537C47.2803 25.5329 47.659 25.4633 48.0198 25.5592C48.3806 25.655 48.6957 25.9091 48.8995 26.2684C49.1034 26.6278 49.1802 27.0647 49.114 27.4883C49.0478 27.9119 48.8438 28.2895 48.5443 28.5424C48.3152 28.7513 48.0743 28.9422 47.8233 29.1138C46.6274 29.9551 45.5472 31.0013 44.6193 32.2171C39.9372 38.3294 40.3383 45.7731 45.0249 51.3716C47.5484 54.3806 50.9237 55.3032 54.4161 55.6177C57.3324 55.8015 60.2563 55.5015 63.0998 54.7265C64.1318 54.4802 64.8078 55.0096 64.9655 55.9741C65.1232 56.9387 64.7041 57.725 63.6947 58.0028C59.4227 59.177 55.1326 59.523 50.784 58.4431C49.5267 58.1863 48.3506 57.5992 47.1023 57.227L47.1068 57.2532ZM48.2154 96.9356H50.6578C50.9057 96.9356 51.1625 96.9985 51.3202 96.6316C52.3116 94.2831 53.3211 91.9452 54.4071 89.4132H51.8475C51.7364 89.3923 51.6224 89.4136 51.5225 89.4741C51.4226 89.5345 51.3422 89.6308 51.2932 89.7487C50.2973 92.0657 49.2879 94.4037 48.2109 96.9094L48.2154 96.9356ZM8.4919 38.7487L9.14081 33.5067L5.00849 35.5301L8.4919 38.7487ZM47.1383 57.3004C47.0122 57.1851 46.9626 57.1117 46.895 57.0907C46.8666 57.0857 46.8375 57.0894 46.8107 57.1013C46.7839 57.1133 46.7601 57.1331 46.7418 57.1588C46.6382 57.3056 46.7959 57.3161 46.8454 57.3371C46.895 57.3581 46.9806 57.3056 47.1338 57.2794L47.1383 57.3004Z" fill="#c9d1d9"/>
<path d="M48.2109 96.9094C49.288 94.4037 50.2974 92.0657 51.2888 89.7173C51.3378 89.5994 51.4182 89.5031 51.5181 89.4426C51.618 89.3822 51.7319 89.3608 51.8431 89.3818H54.4252C53.3392 91.9137 52.3297 94.2517 51.3383 96.6001C51.1806 96.9671 50.9238 96.8989 50.6759 96.9042L48.2109 96.9094Z" fill="#c9d1d9"/>
<path d="M47.1348 57.2794C46.9816 57.3056 46.896 57.3476 46.8419 57.3161C46.7879 57.2846 46.6346 57.2846 46.7383 57.1379C46.7566 57.1121 46.7803 57.0923 46.8072 57.0804C46.834 57.0684 46.8631 57.0648 46.8915 57.0697C46.9591 57.0907 47.0087 57.1641 47.1348 57.2794Z" fill="#c9d1d9"/>
<path d="M30.1217 30.9224C30.0947 35.7451 27.2737 38.906 23.2856 38.4814C22.2935 38.3891 21.3394 37.9972 20.5174 37.3444C19.6955 36.6917 19.0342 35.8007 18.599 34.7596C17.0083 31.3312 17.7788 26.3408 20.2393 24.0133C21.27 23.0704 22.5337 22.5375 23.8444 22.4931C24.2202 22.4457 24.597 22.5718 24.8937 22.8444C25.1904 23.1169 25.3832 23.5141 25.4306 23.9504C25.459 24.1743 25.4475 24.4026 25.3969 24.6211C25.3463 24.8397 25.2575 25.0437 25.1363 25.2207C25.015 25.3977 24.8637 25.5437 24.6919 25.6499C24.52 25.756 24.3313 25.8199 24.1373 25.8376C21.109 26.4718 19.6805 30.0889 21.2082 33.2551C21.5548 33.9668 22.0904 34.5287 22.7346 34.8566C23.3789 35.1845 24.0971 35.2608 24.7817 35.0741C25.4453 34.881 26.0381 34.4452 26.473 33.8309C26.9078 33.2166 27.1616 32.4562 27.1971 31.6615C27.2287 31.022 27.1971 30.3719 27.2332 29.7377C27.3098 28.6211 27.9587 27.8872 28.7653 27.9449C29.572 28.0025 30.0902 28.6788 30.1172 29.7901C30.1352 30.1623 30.1217 30.5449 30.1217 30.9224Z" fill="#c9d1d9"/>
<path d="M73.24 52.0531C73.276 53.5628 69.8693 56.058 68.7337 55.3556C68.5263 55.2248 68.3501 55.0362 68.2209 54.8067C68.0917 54.5771 68.0136 54.3139 67.9935 54.0405C67.9734 53.7671 68.0119 53.4922 68.1057 53.2405C68.1995 52.9888 68.3456 52.7681 68.5309 52.5983C69.3529 51.8673 70.2205 51.2084 71.1265 50.6272C71.342 50.4902 71.5842 50.4201 71.8298 50.4237C72.0754 50.4273 72.316 50.5045 72.5284 50.6478C72.7409 50.7912 72.918 50.9958 73.0426 51.2419C73.1673 51.4881 73.2352 51.7675 73.24 52.0531Z" fill="#c9d1d9"/>
</svg>
