<svg width="49px" height="49px" viewBox="16 16 49 49" fill="none" xmlns="http://www.w3.org/2000/svg"><path d="M27.105 20.417c-2.153.577-3.698 2.306-4.437 4.301-.74 1.995-.787 4.328-.156 6.67.632 2.341 1.848 4.338 3.491 5.694 1.644 1.356 3.85 2.079 6.003 1.502 2.153-.577 3.697-2.307 4.437-4.302.74-1.994.787-4.327.156-6.669-.632-2.341-1.848-4.338-3.491-5.694-1.644-1.357-3.85-2.08-6.003-1.502Zm9.494 7.196c.631 2.342 1.848 4.338 3.49 5.694 1.644 1.356 3.852 2.079 6.003 1.502 2.154-.577 3.698-2.306 4.437-4.301.74-1.995.788-4.328.156-6.67-.632-2.34-1.848-4.338-3.491-5.694-1.643-1.356-3.85-2.079-6.003-1.502-2.153.577-3.697 2.307-4.437 4.302-.739 1.994-.787 4.328-.155 6.669Zm-8.405-3.16c.628-.167 1.405-.038 2.276.677.861.715 1.683 2.001 2.104 3.561.42 1.56.358 3.086-.029 4.134-.393 1.053-1 1.553-1.628 1.722-.628.168-1.405.039-2.276-.676-.861-.715-1.683-2.002-2.104-3.562-.421-1.56-.358-3.086.029-4.133.393-1.053 1-1.554 1.628-1.722Zm14.087-3.774c.627-.168 1.404-.038 2.275.676.862.715 1.683 2.002 2.104 3.562.421 1.56.358 3.086-.028 4.133-.394 1.054-1 1.554-1.629 1.722-.628.168-1.405.039-2.275-.676-.862-.715-1.684-2.001-2.105-3.561-.42-1.56-.357-3.086.029-4.134.393-1.053 1-1.553 1.629-1.722ZM20.855 37.243c-2.153.577-3.698 2.306-4.437 4.301-.74 1.995-.787 4.328-.156 6.67.632 2.34 1.848 4.337 3.491 5.694 1.644 1.356 3.85 2.079 6.003 1.502 2.153-.577 3.698-2.307 4.437-4.302.74-1.994.787-4.327.156-6.669-.632-2.342-1.848-4.338-3.491-5.694-1.644-1.357-3.85-2.08-6.003-1.502Zm34.21-9.167c-2.153.577-3.698 2.307-4.437 4.302-.74 1.994-.788 4.327-.156 6.669.632 2.341 1.848 4.338 3.491 5.694 1.644 1.356 3.85 2.08 6.003 1.502 2.153-.577 3.697-2.307 4.437-4.301.74-1.995.787-4.328.156-6.67-.632-2.341-1.848-4.338-3.491-5.694-1.644-1.356-3.85-2.079-6.003-1.502ZM21.945 41.28c.627-.168 1.404-.039 2.275.676.861.715 1.683 2.001 2.104 3.561.421 1.56.358 3.086-.029 4.133-.393 1.054-1 1.554-1.628 1.723-.628.168-1.405.038-2.276-.676-.86-.713-1.683-2.002-2.104-3.562-.42-1.56-.358-3.086.029-4.133.393-1.054 1-1.554 1.628-1.722Zm34.209-9.167c.628-.168 1.405-.038 2.275.676.862.715 1.684 2.002 2.105 3.562.42 1.56.358 3.086-.029 4.133-.393 1.053-1 1.554-1.628 1.722-.628.168-1.405.039-2.276-.676-.861-.715-1.683-2.001-2.104-3.562-.421-1.56-.358-3.085.029-4.133.393-1.053 1-1.553 1.628-1.722Zm-16.016 8.62c-2.682.72-4.083 2.967-4.588 4.747-.5 1.78-.72 3.206-1.111 3.882-.222.4-1.967 1.653-3.712 3.23-.872.79-1.706 1.757-2.279 3.047-.58 1.291-.768 2.911-.325 4.552 1.045 3.876 5.085 6.213 8.949 5.178 1.742-.467 3.41-1.52 5.054-2.502a78.305 78.305 0 0 1 3.458-1.948s2.043-.08 3.966-.045c1.92.026 3.891.104 5.634-.363 3.864-1.035 6.183-5.076 5.137-8.952-.432-1.603-1.417-2.91-2.554-3.71-1.135-.806-2.338-1.17-3.486-1.435-2.301-.53-4.508-.849-4.872-1.063-.612-.349-1.511-1.521-2.853-2.815-1.341-1.301-3.721-2.525-6.418-1.802Zm1.09 4.038c1.327-.356 1.561-.072 2.43.769.873.837 1.781 2.414 3.638 3.49 2.107 1.21 4.302 1.012 6.049 1.418.875.203 1.575.48 2.039.806.46.325.718.665.911 1.38.458 1.695-.511 3.383-2.201 3.836-.584.157-2.583.216-4.47.18-1.885-.029-3.488-.212-5.13.228-1.643.44-2.937 1.4-4.554 2.367-1.614.974-3.374 1.922-3.957 2.078-1.69.453-3.378-.523-3.836-2.219-.22-.813-.163-1.277.06-1.778.224-.5.73-1.07 1.376-1.652 1.29-1.168 3.293-2.03 4.533-4.19 1.074-1.884 1.044-3.755 1.375-4.904.32-1.146.388-1.457 1.732-1.817l.004.008Z" fill="#c9d1d9"/></svg>