<svg width="24" height="24" viewBox="0 0 24 24" fill="none" xmlns="http://www.w3.org/2000/svg">
<g clip-path="url(#clip0_27_40)">
<g filter="url(#filter0_d_27_40)">
<path d="M21 21L16.514 16.506L21 21ZM19 10.5C19 12.7543 18.1045 14.9163 16.5104 16.5104C14.9163 18.1045 12.7543 19 10.5 19C8.24566 19 6.08365 18.1045 4.48959 16.5104C2.89553 14.9163 2 12.7543 2 10.5C2 8.24566 2.89553 6.08365 4.48959 4.48959C6.08365 2.89553 8.24566 2 10.5 2C12.7543 2 14.9163 2.89553 16.5104 4.48959C18.1045 6.08365 19 8.24566 19 10.5V10.5Z" stroke="#c9d1d9" stroke-width="2" stroke-linecap="round" shape-rendering="crispEdges"/>
</g>
</g>
<defs>
<filter id="filter0_d_27_40" x="-3" y="1" width="28.7078" height="28.7065" filterUnits="userSpaceOnUse" color-interpolation-filters="sRGB">
<feFlood flood-opacity="0" result="BackgroundImageFix"/>
<feColorMatrix in="SourceAlpha" type="matrix" values="0 0 0 0 0 0 0 0 0 0 0 0 0 0 0 0 0 0 127 0" result="hardAlpha"/>
<feOffset dy="4"/>
<feGaussianBlur stdDeviation="2"/>
<feComposite in2="hardAlpha" operator="out"/>
<feColorMatrix type="matrix" values="0 0 0 0 0 0 0 0 0 0 0 0 0 0 0 0 0 0 0.25 0"/>
<feBlend mode="normal" in2="BackgroundImageFix" result="effect1_dropShadow_27_40"/>
<feBlend mode="normal" in="SourceGraphic" in2="effect1_dropShadow_27_40" result="shape"/>
</filter>
<clipPath id="clip0_27_40">
<rect width="24" height="24" rx="12" fill="#c9d1d9"/>
</clipPath>
</defs>
</svg>
